<svg width="166" height="115" viewBox="0 0 166 115" fill="none" xmlns="http://www.w3.org/2000/svg">
    <path fill-rule="evenodd" clip-rule="evenodd"
        d="M119.61 31.0259L121.581 24.9614L123.59 18.8754L126.872 16.9153C129.487 15.3441 130.389 15.0178 131.037 15.286C131.781 15.5482 131.703 16.1897 130.328 20.6158L128.779 25.6894L130.19 24.8684C131.489 24.1123 131.796 23.4373 133.588 17.9241L135.516 11.7852L138.788 9.98006C140.554 9.00187 142.289 8.1414 142.591 8.06467C143.828 7.8911 143.747 9.47799 142.255 13.8729L140.663 18.5247L142.472 17.6211C144.243 16.739 144.296 16.6585 145.866 11.6222C148.155 4.47841 148.159 4.47626 151.38 2.60194L151.463 2.55389C156.697 -0.492422 157.075 0.0819945 154.719 7.11571C152.8 12.7525 152.326 14.5182 152.534 14.7946C152.598 14.9064 155.515 15.5926 159.027 16.2803C167.237 17.9098 167.487 18.2607 162.598 21.3048L159.098 23.4906L152.786 22.148C146.707 20.8679 146.457 20.8642 144.75 21.858L143.005 22.8735L148.08 24.0425C154.669 25.5222 154.808 25.938 149.908 28.7898L146.344 30.8639L140.09 29.5369C134.538 28.3977 133.65 28.3179 132.463 29.0093L131.147 29.8243L136.222 30.9934C142.811 32.4731 142.929 32.8516 137.896 35.731L134.258 37.8483L128.063 36.5369L121.846 35.1883L115.959 38.6141L117.01 39.1953L119.594 40.6237V43.4804V90.0768L77.3763 113.421L74.8763 114.803L72.3763 113.421L30.1589 90.0768V87.8635C26.4986 90.0279 24.1822 91.4693 24.2403 91.5742C24.3172 91.7131 26.2815 92.9758 28.5321 94.3203C32.527 96.7478 33.5974 98.0278 32.2656 98.7773C31.9441 98.9583 24.8447 99.7354 16.4732 100.5C5.1443 101.471 1.19565 101.629 0.862339 101.027C0.529028 100.425 2.7342 97.1196 9.54527 87.8819C14.5836 81.0993 18.8937 75.3945 19.1692 75.2395C20.4498 74.3973 21.1026 76.3374 21.0252 80.8746C20.9795 83.5114 21.0097 85.7412 21.0866 85.8801C21.1223 85.9445 22.7083 85.0196 25.3005 83.5079L25.3006 83.5078L25.3027 83.5066C26.6687 82.71 28.314 81.7505 30.1589 80.687V43.4804V40.6237L32.7421 39.1953L74.8763 15.8971L111.146 35.9523L119.61 31.0259ZM40.4503 81.9047C38.5972 82.9602 36.817 83.9822 35.1589 84.9417V87.1281L72.3763 107.707V66.8246L35.1589 46.2452V77.8359C35.9109 77.4122 36.6796 76.9817 37.4615 76.5469L49.9607 69.5222L54.2179 71.478L56.7683 72.5389L40.4503 81.9047ZM111.844 42.052L74.8763 21.6106L37.9084 42.052L74.8763 62.4935L96.0252 50.7991L111.844 42.052ZM77.3763 66.8246V107.707L114.594 87.1281V46.2452L98.4447 55.1747L77.3763 66.8246Z"
        fill="white" />
</svg>