<svg width="119" height="104" viewBox="0 0 119 104" fill="none" xmlns="http://www.w3.org/2000/svg">
    <g filter="url(#filter0_d_1693_231)">
        <path fill-rule="evenodd" clip-rule="evenodd"
            d="M58.7335 2.66461L59.8896 0.671875L61.0458 2.66461L64.0017 7.75961L62.2863 8.78834L59.8896 4.65735L36.6461 44.7212H83.1332L79.0322 37.6525L80.7476 36.6238L113.729 93.473L114.89 95.473H112.577H60.8111L60.7119 95.6726L60.3065 95.473H60.2767C60.1467 95.4749 60.0165 95.4759 59.8861 95.4759C59.7556 95.4759 59.6254 95.4749 59.4954 95.473H59.2066L58.8707 95.6387L58.7881 95.473H7.20187H4.88965L6.04997 93.473L34.303 44.7745V44.7212H34.3339L58.7335 2.66461ZM34.303 48.7599L8.36219 93.473H34.303V93.469V48.7599ZM85.298 93.473H111.417L85.298 48.4526V93.469V93.473ZM79.336 34.1908L77.6207 35.2195L76.5926 33.4475L78.308 32.4187L79.336 34.1908ZM76.8964 29.9857L75.9844 28.4137L74.269 29.4424L75.181 31.0144L76.8964 29.9857ZM74.5729 25.9807L72.8575 27.0094L71.8645 25.2979L73.5799 24.2692L74.5729 25.9807ZM72.1684 21.8362L71.1741 20.1224L69.4587 21.1512L70.453 22.8649L72.1684 21.8362ZM69.7626 17.6894L68.0472 18.7181L67.0932 17.0738L68.8086 16.0451L69.7626 17.6894ZM69.8221 93.469H83.298V80.0245C80.735 86.0629 75.882 90.9037 69.8221 93.469ZM83.298 60.3667V50.2204L80.6271 55.5953C81.6814 57.0759 82.5796 58.6742 83.298 60.3667ZM78.2875 55.8097L59.7986 93.0166L46.9886 67.3198C48.4082 68.0303 50.0165 68.3807 51.5947 68.3864C55.1772 68.3993 58.9592 66.641 60.4378 62.8844L59.7371 62.6086L60.4311 62.3071C57.407 55.3455 47.5538 54.7657 43.7409 60.8048L41.3418 55.9923C45.6197 50.4731 52.3324 46.9153 59.8861 46.9153C67.3562 46.9153 74.0038 50.3948 78.2875 55.8097ZM58.3681 62.6237C56.7817 59.57 53.4653 58.2898 50.4474 58.7357L54.053 62.3238L51.9265 64.44L47.37 59.9055C46.3912 60.561 45.5672 61.4718 45.0153 62.6353C46.1218 65.0562 48.7634 66.3761 51.6019 66.3864C54.4336 66.3966 57.1473 65.0988 58.3681 62.6237ZM79.263 53.8467L82.8037 46.7212H69.3332C73.2054 48.2659 76.6066 50.7319 79.263 53.8467ZM40.3602 54.0231C43.0379 50.8249 46.494 48.2949 50.439 46.7212H36.7202L40.3602 54.0231ZM39.0068 55.7915C37.9277 57.3377 37.0176 59.0094 36.303 60.7803V50.3678L39.0068 55.7915ZM36.303 79.6109V93.469H49.9501C43.7524 90.8454 38.8172 85.8416 36.303 79.6109ZM61.8433 93.3957L79.605 57.6522C81.9375 61.2733 83.2895 65.5784 83.2895 70.1956C83.2895 82.389 73.8605 92.4063 61.8433 93.3957ZM57.7446 93.3798C45.8155 92.3038 36.4827 82.3267 36.4827 70.1956C36.4827 65.6653 37.7843 61.4354 40.0366 57.8573L57.7446 93.3798Z"
            fill="white" />
    </g>
    <defs>
        <filter id="filter0_d_1693_231" x="0.889648" y="0.671875" width="118" height="103.001"
            filterUnits="userSpaceOnUse" color-interpolation-filters="sRGB">
            <feFlood flood-opacity="0" result="BackgroundImageFix" />
            <feColorMatrix in="SourceAlpha" type="matrix" values="0 0 0 0 0 0 0 0 0 0 0 0 0 0 0 0 0 0 127 0"
                result="hardAlpha" />
            <feOffset dy="4" />
            <feGaussianBlur stdDeviation="2" />
            <feComposite in2="hardAlpha" operator="out" />
            <feColorMatrix type="matrix" values="0 0 0 0 0 0 0 0 0 0 0 0 0 0 0 0 0 0 0.25 0" />
            <feBlend mode="normal" in2="BackgroundImageFix" result="effect1_dropShadow_1693_231" />
            <feBlend mode="normal" in="SourceGraphic" in2="effect1_dropShadow_1693_231" result="shape" />
        </filter>
    </defs>
</svg>