<svg width="61" height="68" viewBox="0 0 61 68" fill="none" xmlns="http://www.w3.org/2000/svg">
    <path
        d="M14.4602 1.32059C10.2704 2.90873 6.85069 6.02391 4.9406 9.96371C4.29363 11.3686 3.58505 13.2621 3.36939 14.1784C3.18454 15.0946 2.90727 16.2246 2.75323 16.6827C2.44515 17.7517 2.87647 21.722 3.52343 23.2185C3.8007 23.8904 4.35525 24.9288 4.81736 25.5396C5.86483 27.0667 5.61837 28.0135 3.98555 28.8381C3.0305 29.3267 2.72243 29.6627 2.53758 30.5789C2.16788 32.2892 2.29112 41.6653 2.69162 42.6732C2.90727 43.1313 3.52343 43.7116 4.10878 44.017C4.9406 44.3835 5.21787 44.75 5.37191 45.6051C5.61837 46.9184 6.60422 48.0789 7.49765 48.0789C7.86735 48.0789 8.69916 48.4149 9.34613 48.8425L10.5476 49.5755L11.4411 48.5981C12.4577 47.4376 12.4269 47.5292 11.8416 46.1549C11.5027 45.3303 11.4719 45.0554 11.78 44.9332C12.0264 44.8721 11.8724 44.4446 11.3178 43.62C10.2087 42.0013 7.55927 39.222 7.12796 39.222C6.69665 39.222 6.97392 40.0772 7.6825 40.9018C8.60674 42.0013 8.66835 42.2761 8.02139 43.0702C7.65169 43.5283 7.37442 44.0475 7.37442 44.2308C7.37442 44.414 7.65169 44.1086 7.99058 43.5589C8.32947 43.0397 8.79158 42.5816 9.03805 42.5816C9.65421 42.5816 11.3794 44.0781 11.3794 44.5973C11.3794 45.1165 11.0098 45.147 10.5476 44.6889C10.0855 44.2308 8.60674 44.5973 8.60674 45.2081C8.60674 45.6357 8.66835 45.6357 9.28451 45.2081C10.3936 44.4446 11.0714 45.0554 11.0714 46.8573C11.0714 48.5676 10.7941 48.7203 9.13047 47.8957C7.43604 47.0406 6.85069 46.2159 6.78907 44.6278C6.75826 44.3529 6.54261 44.1086 6.29614 44.1086C6.08049 44.1086 5.7416 43.9254 5.61837 43.7116C5.49514 43.5283 5.00221 43.1618 4.50928 42.9175C4.04717 42.6732 3.55424 42.1234 3.46182 41.6959C3.33858 41.2683 3.24616 38.7028 3.21535 36.0152C3.21535 31.2814 3.24616 31.0981 3.98555 30.0597L4.75575 28.9908L4.84817 30.64C4.90979 31.5562 5.15625 32.5946 5.40271 32.9306C5.83403 33.5414 5.83403 33.5109 5.7416 32.6252C5.67999 32.106 5.52595 31.5257 5.40271 31.3119C5.27948 31.1287 5.3411 30.976 5.49514 30.976C5.67999 30.976 5.83403 31.0981 5.83403 31.2814C5.83403 31.4341 5.98806 31.5868 6.17291 31.5868C6.38857 31.5868 6.45018 31.2508 6.32695 30.6705C6.23453 30.1513 6.04968 29.3573 5.95726 28.8992C5.80322 28.1967 5.89564 28.0135 6.35776 28.0135C6.66584 28.0135 7.25119 28.3189 7.6825 28.6854C8.11381 29.0824 8.91482 29.6627 9.46936 29.9986C11.0098 30.8843 10.1471 31.0981 8.48351 30.2124C7.71331 29.8154 7.06634 29.6016 7.06634 29.7543C7.06634 29.9376 7.43604 30.243 7.92896 30.4568C8.39108 30.64 8.82239 30.8843 8.91482 30.976C9.16128 31.2203 11.2254 31.8922 11.78 31.8922C12.088 31.8922 12.4577 31.5257 12.6426 31.0981C12.7966 30.64 13.536 29.6932 14.2446 28.9602C15.939 27.2499 17.2638 25.1121 17.6026 23.5239C18.1264 21.0807 18.1264 20.6531 17.6951 20.2866C17.2946 19.9506 17.233 20.1033 17.233 21.2334C17.2021 23.3102 16.7708 24.715 15.5693 26.517C13.9981 28.8686 12.4269 30.0903 11.1946 29.9376C10.1779 29.8154 8.91482 29.174 8.91482 28.777C8.91482 28.6243 8.72997 28.5327 8.51431 28.5327C7.89816 28.5327 6.69665 27.0056 6.88149 26.517C6.97392 26.2726 7.31281 26.0894 7.65169 26.0894C7.99058 26.0894 8.4527 25.9061 8.66835 25.6924C8.88401 25.448 9.93148 24.8983 10.9789 24.4096C12.0264 23.9515 12.8582 23.4934 12.8274 23.3712C12.735 23.0658 13.9057 21.9358 14.5835 21.6915C15.1072 21.5082 15.1072 21.5388 14.7067 22.1801C14.4602 22.5772 14.1522 23.2185 14.0597 23.6461C13.9673 24.0737 13.4436 24.8677 12.9198 25.4175C12.4269 25.9672 11.9956 26.5475 11.9956 26.7307C11.9956 26.8835 11.9032 27.0056 11.78 27.0056C11.6259 27.0056 11.133 27.3416 10.6093 27.7691C9.96229 28.2883 9.83905 28.5021 10.1779 28.5327C10.9481 28.5327 13.4744 26.181 14.183 24.7761C14.9532 23.3102 15.6926 20.989 15.6926 20.0423C15.6926 19.3704 16.0006 19.1871 16.4319 19.5841C16.5552 19.7368 17.1713 19.8285 17.7875 19.8285H18.9274L19.0198 21.8747C19.0814 23.0353 19.2355 23.9515 19.3895 23.9515C19.5744 23.9515 19.6976 24.1042 19.6976 24.2875C19.6976 24.4707 20.1905 25.2037 20.7759 25.9061C21.3612 26.6391 21.7617 27.311 21.6693 27.4027C21.5461 27.4943 21.8541 27.7691 22.3471 27.9829C23.6102 28.5021 24.288 29.1435 24.1339 29.6016C23.9491 30.0292 26.0748 31.4646 26.4137 31.1592C26.5061 31.037 26.2905 30.8843 25.9208 30.7622C25.5511 30.6705 25.243 30.3957 25.243 30.1819C25.243 29.6627 25.2122 29.6627 26.4445 30.0903C26.9991 30.2735 27.3688 30.5178 27.338 30.64C27.2763 30.7316 27.0299 31.1897 26.8142 31.6173C26.1056 33.0527 23.1481 34.0911 21.0223 33.633C19.4819 33.3276 19.2663 32.8084 20.6526 32.8084C21.7001 32.8084 23.8875 31.7395 24.1339 31.0981C24.4112 30.3957 23.7334 30.3041 23.0557 30.9454C22.2546 31.6784 19.6052 32.5641 18.9582 32.3198C18.2188 32.0449 17.9723 30.7011 18.5885 30.1208C19.0506 29.6627 19.0814 29.6627 19.0814 30.3041C19.0814 30.8538 19.2663 30.976 19.9749 30.976C20.8991 30.976 22.4703 29.9681 22.1006 29.6016C21.9774 29.4794 21.2996 29.51 20.591 29.6932C19.4203 29.9986 19.3279 29.9681 19.4819 29.4184C19.636 28.8381 19.6052 28.8381 18.4961 29.4794C17.8491 29.8154 17.0789 30.5178 16.8016 31.0065C16.2779 31.8922 16.2779 31.8922 17.0789 31.8922C17.5102 31.8922 17.8183 32.0144 17.7259 32.1671C17.4486 32.6252 18.5885 33.3887 20.437 33.9995C22.193 34.5798 22.2238 34.5798 23.795 33.969C25.9824 33.1444 26.7834 32.9917 26.7834 33.3887C26.7834 33.5719 26.6602 33.7246 26.5061 33.7246C26.3829 33.7246 25.7667 34.1217 25.2122 34.6409C24.3188 35.4044 23.9799 35.5266 22.9324 35.4044C22.2546 35.3128 21.4228 35.2517 21.0839 35.2517C19.3587 35.2212 16.3087 33.5719 16.3087 32.6252C16.3087 32.3808 16.1855 32.2281 16.0314 32.3503C15.8466 32.4419 15.6001 32.2587 15.4153 31.9838C15.2612 31.6784 15.0456 31.5257 14.9224 31.6479C14.7991 31.7395 14.8607 32.106 15.0148 32.3808C15.2612 32.839 15.1072 33.0833 14.1522 33.7857C13.1047 34.5493 12.7658 35.099 12.1805 36.8704C11.934 37.6034 11.5951 37.359 10.0855 35.3128C9.37694 34.366 8.32947 33.0833 7.74412 32.503L6.69665 31.4341L7.25119 32.503C7.55927 33.0833 8.29866 34.0911 8.88401 34.702C9.77744 35.6487 9.90067 35.9847 9.71582 36.7788C9.53098 37.695 9.59259 37.7561 10.2704 37.6339C11.6259 37.359 11.8108 37.7561 11.9032 40.8102C11.9956 44.5973 12.088 45.4524 12.3961 45.6662C12.5502 45.7884 12.7966 46.8878 12.9198 48.1095C13.1971 50.5833 13.7825 53.4542 14.183 54.2177C14.337 54.5231 14.1522 55.1034 13.6592 55.928C12.8274 57.3329 12.2113 57.6688 11.4103 57.2413C11.0406 57.058 10.7325 57.0886 10.5168 57.3023C10.2396 57.5772 10.1471 57.5161 10.1471 57.0886C10.1471 56.5694 10.1163 56.5694 9.59259 57.0275C8.8532 57.6994 8.57593 57.6688 8.82239 56.9969C8.97643 56.5999 8.82239 56.661 8.20623 57.2107C7.74412 57.6383 7.40523 58.188 7.43604 58.4324C7.49765 58.7989 7.25119 58.921 6.54261 58.9516C5.98806 58.9821 5.52595 58.8599 5.52595 58.7072C5.52595 58.5545 5.40271 58.524 5.21787 58.6156C5.06383 58.7072 4.90979 58.524 4.90979 58.188C4.90979 57.8215 4.78656 57.5467 4.63252 57.5467C4.47848 57.5467 4.26282 57.3023 4.1704 57.0275C3.92393 56.4472 5.12544 53.8817 5.7416 53.668C5.95726 53.5763 6.1421 53.3015 6.1421 53.0571C6.1421 52.8128 6.29614 52.7212 6.45018 52.8128C6.63503 52.9044 6.75826 52.7823 6.75826 52.5379C6.75826 51.866 6.17291 51.6217 5.64918 52.0798C4.9714 52.6296 4.72494 52.1409 5.18706 51.0414C5.37191 50.4917 5.61837 49.8198 5.67999 49.5144C5.7416 49.2395 5.89564 48.8425 5.98806 48.6898C6.08049 48.5065 6.04968 48.3844 5.86483 48.3844C5.67999 48.3844 5.27948 48.0789 4.9406 47.743C4.41686 47.1933 4.07797 47.1016 2.72243 47.2238C1.8598 47.3154 1.02799 47.5903 0.873951 47.8041C0.719911 48.0484 0.59668 48.9036 0.59668 49.6976C0.59668 51.4079 1.58253 52.6601 2.90727 52.6601C3.43101 52.6601 3.8007 52.9044 4.04717 53.4236C4.35525 54.065 4.29363 54.3093 3.73909 54.8896C2.93808 55.7448 2.84566 57.455 3.52343 58.7378C4.04717 59.7456 4.66332 60.051 5.71079 59.8067C6.38857 59.6235 6.45018 59.7151 6.45018 60.6619C6.45018 62.7387 8.26785 63.3189 9.77744 61.7613C10.1471 61.3643 11.4719 60.0205 12.7658 58.7378C14.0289 57.4245 15.0764 56.1723 15.0764 55.928C15.0764 54.9507 15.6926 55.1034 16.4319 56.2639C17.2946 57.6383 19.8516 60.2954 20.3137 60.2954C20.4678 60.2954 20.9607 60.9673 21.392 61.8224C22.4395 63.8687 24.6577 66.0065 26.7526 66.9839C29.1556 68.0833 32.3596 68.0833 34.8243 66.9533C36.8576 66.0371 38.7985 64.2046 39.7535 62.3722C40.1232 61.6392 41.2015 60.2954 42.1874 59.3486C43.1732 58.4018 44.2207 57.1496 44.498 56.5999C45.0217 55.6531 45.0525 55.6226 45.453 56.2029C46.2232 57.2718 48.4722 59.4097 49.3348 59.8678C49.7969 60.0816 50.2282 60.5702 50.3515 60.8756C50.5671 61.5781 52.3232 62.7387 53.1242 62.7387C53.8944 62.7387 54.4797 61.853 54.5105 60.6924C54.5105 59.7456 54.5721 59.7151 55.6196 59.7762C56.513 59.8373 56.8519 59.6845 57.3757 58.9821C58.2999 57.791 58.2691 55.9891 57.3141 54.9812C56.2666 53.8817 56.7287 52.9655 58.5464 52.5379C60.2408 52.1104 60.8262 51.1025 60.5181 49.1173C60.3024 47.5597 60.2408 47.5292 58.3615 47.2849C57.16 47.1016 56.8519 47.1627 56.1742 47.8041C55.7429 48.2011 55.3423 48.5065 55.2499 48.4454C54.911 48.2622 54.5105 48.4149 54.6646 48.6898C54.7878 48.873 55.0035 48.9341 55.1575 48.8425C55.3115 48.7203 55.4348 49.0868 55.4348 49.6365C55.4348 50.1863 55.6812 50.8887 55.9585 51.1941C56.359 51.6522 56.3898 51.8355 56.0817 52.1409C55.8045 52.4158 55.6504 52.4158 55.4656 52.0798C55.0959 51.5301 54.2025 51.866 54.2025 52.5685C54.2025 52.8739 54.6338 53.3625 55.1267 53.6374C55.6504 53.9428 56.1434 54.4009 56.2666 54.7064C56.3898 55.0118 56.5747 55.3172 56.6671 55.4088C57.0368 55.6531 57.3449 56.9359 57.0676 56.9359C56.9136 56.9359 56.5747 57.394 56.2666 57.9132C55.8353 58.7072 55.4964 58.9516 54.6646 58.9821C54.11 59.0432 53.5247 58.921 53.4323 58.7683C53.3398 58.5851 53.4014 58.4629 53.5863 58.4629C53.956 58.4629 52.6621 56.661 52.2924 56.661C52.1383 56.6304 52.0459 56.8442 52.0459 57.0886C52.0459 57.6688 51.4605 57.6688 51.2449 57.0886C50.9984 56.5083 51.6454 55.8975 53.155 55.2256C54.2025 54.7674 54.2641 54.6758 53.6787 54.5842C52.7237 54.4009 50.8136 55.8975 50.8136 56.7831C50.8136 57.3634 50.5979 57.5161 49.6737 57.6078C48.6262 57.7605 48.3798 57.6383 47.3323 56.5694C46.3772 55.592 46.254 55.2866 46.5005 54.7674C46.6853 54.462 46.9934 54.1872 47.2091 54.1872C47.4555 54.1872 47.4555 54.0955 47.1474 53.9123C46.8702 53.729 46.8394 53.5763 47.0858 53.4542C47.2707 53.332 47.4247 52.8739 47.4247 52.4769C47.4247 52.0493 47.7328 50.6749 48.1025 49.4228C48.8111 46.9184 49.2116 46.8268 49.8585 48.9952L50.2282 50.2168L51.3681 49.3311C51.9843 48.8425 52.8161 48.3538 53.2166 48.2317C53.5863 48.14 53.8944 47.9262 53.8944 47.7735C53.8944 47.6514 54.2333 47.4376 54.6646 47.346C55.0959 47.2238 55.4348 46.9795 55.4348 46.7657C55.4348 45.483 56.1125 44.1392 56.9752 43.8032C57.5297 43.5894 57.9918 43.0702 58.2075 42.4899C58.7004 41.1461 58.9469 35.5877 58.6696 32.6863C58.4539 30.1819 58.1459 29.6627 56.3898 28.5327L55.6812 28.044L56.4822 27.0972C59.1317 23.9515 60.3332 17.8738 59.2858 12.8346C58.5772 9.41397 57.961 8.25341 56.8519 8.13124C55.6504 7.97854 52.1691 9.35289 50.7828 10.4829L49.6737 11.3991L49.7969 13.6286C49.951 16.3773 49.6429 16.8049 46.6545 18.0876C45.0217 18.7595 44.1899 18.9428 43.204 18.8512C42.0641 18.729 41.8793 18.6068 41.8793 17.9655C41.8793 17.2019 42.4338 16.4995 43.7586 15.6443C44.2207 15.3695 44.652 14.7892 44.7136 14.3616C44.8985 13.4148 43.8818 11.7962 42.8651 11.3991C42.2182 11.1548 41.9717 11.277 40.8934 12.3765C40.2157 13.0789 39.7843 13.7203 39.9384 13.8424C40.5854 14.3005 41.5712 16.3162 41.5712 17.263C41.5712 17.8433 41.7252 18.8817 41.8793 19.6147C42.5571 22.455 40.6778 26.181 37.5662 28.1662C33.6844 30.6095 29.6485 31.0676 26.3213 29.3573C23.641 27.9829 21.6385 26.2421 20.7142 24.4707C20.0365 23.1269 19.9749 22.6688 20.1289 20.7752C20.4062 17.1409 20.6526 16.2246 21.5769 15.0335C22.5935 13.7508 22.6551 13.5676 22.039 13.5676C21.8233 13.5676 21.0839 12.9873 20.4678 12.2848C19.3279 11.0632 19.2971 11.0326 18.4961 11.5213C17.4178 12.1627 16.6168 13.537 16.8325 14.5143C16.9249 14.9724 17.6026 15.7971 18.4961 16.4995C20.5602 18.1182 20.4678 18.8206 18.188 18.9428C16.6168 19.0344 16.4319 18.9428 15.3537 17.9044C13.7517 16.2857 13.2279 13.934 14.0289 11.8573C14.5835 10.3913 14.8607 9.87209 16.7708 7.00123C19.2971 3.15305 19.2971 3.12252 17.7567 1.41222C17.0173 0.618149 16.3703 0.618149 14.4602 1.32059ZM17.233 2.23682C17.8799 2.75603 17.9107 2.87819 17.541 3.3363C17.3254 3.61118 16.9249 3.73334 16.6476 3.64172C16.3087 3.51955 16.3395 3.64172 16.7708 4.09983C17.233 4.61903 17.2946 4.86335 17.0173 5.26039C16.6784 5.81013 16.2779 5.87121 15.1996 5.50471C14.7375 5.38255 14.491 5.44363 14.337 5.77959C14.2138 6.14608 14.337 6.20716 14.9224 6.05445C15.6926 5.87121 15.8774 6.085 15.4461 6.7569C15.2921 6.97069 14.7683 7.06231 14.0905 6.97069C12.735 6.81798 12.2113 7.36772 13.4436 7.64259C15.4153 8.03962 15.5077 8.34504 14.0597 9.38343C13.4744 9.84155 13.1355 9.90263 12.8582 9.68884C12.6426 9.50559 12.0572 9.29181 11.5335 9.16964C10.9481 9.04748 10.7633 9.07802 11.0098 9.23072C11.3486 9.44451 11.3178 9.53614 10.9173 9.71938C10.6401 9.811 10.486 10.0248 10.5784 10.1775C11.0406 10.8799 7.18957 11.0632 6.26534 10.3607C5.92645 10.1164 5.83403 9.90263 6.08049 9.90263C6.26534 9.90263 6.45018 9.6583 6.45018 9.32235C6.45018 8.55882 7.22038 7.948 7.99058 8.16179C8.32947 8.25341 8.66835 8.19233 8.76078 8.07016C8.97643 7.70367 7.83654 7.12339 7.49765 7.39826C7.37442 7.52042 7.65169 7.12339 8.14462 6.51257C8.88401 5.65742 9.16128 5.50471 9.59259 5.74904C10.1471 6.085 11.1946 5.47418 10.8865 4.98552C10.7941 4.83282 10.9481 4.80228 11.1946 4.8939C11.5335 5.01606 11.6875 4.8939 11.6875 4.55795C11.6875 4.16091 11.8724 4.06929 12.4577 4.16091C13.2279 4.31362 13.5052 4.00821 12.9198 3.64172C12.3653 3.30576 12.581 2.93927 13.536 2.63386C14.2446 2.35899 14.5527 2.38953 14.8916 2.75603C15.4769 3.3363 15.8158 3.30576 15.5693 2.69495C15.138 1.59547 16.0314 1.35114 17.233 2.23682ZM57.2832 8.83369C57.2832 8.92531 56.8519 9.47505 56.3282 10.0553C55.3115 11.1548 53.5863 11.9183 52.7545 11.6129C52.508 11.4908 52.1075 11.5518 51.8919 11.7351C51.6454 11.9489 51.2449 11.9489 50.7828 11.7656C50.0434 11.4908 50.0434 11.4908 51.06 11.1243C51.5838 10.9105 52.0459 10.6662 52.0459 10.5134C52.0459 10.2997 53.5863 9.84155 54.5413 9.78046C54.8186 9.74992 55.2191 9.59722 55.4656 9.41397C56.1434 8.86423 57.2832 8.52828 57.2832 8.83369ZM12.9198 10.6662C12.9198 10.9716 11.4411 11.5824 11.2254 11.3686C11.1638 11.3075 11.1638 10.9716 11.2562 10.6051C11.4103 10.1164 11.5951 10.0248 12.1805 10.1775C12.581 10.2691 12.9198 10.4829 12.9198 10.6662ZM57.4065 10.1775C57.9302 11.0326 58.4848 13.9951 58.1767 14.5143C57.9302 15.003 57.9918 15.0946 58.4539 15.0946C58.9469 15.0946 59.0085 15.2473 58.8853 15.9192C58.7928 16.4079 58.5772 16.866 58.3923 16.9882C58.1767 17.1409 58.1459 17.3241 58.3615 17.4463C58.8545 17.8433 58.7004 19.4009 58.1151 19.7063C57.8378 19.8896 57.5913 20.2866 57.5913 20.6225C57.5913 20.9585 57.7146 21.1723 57.8686 21.0807C58.0226 20.989 57.961 21.4777 57.7454 22.2107C57.0676 24.3485 56.7595 24.9899 56.1125 25.5702C55.7737 25.8756 55.404 26.4559 55.3115 26.8835C55.1883 27.3416 54.4181 28.0746 53.2166 28.8381C51.1217 30.1819 51.3373 30.5178 53.4939 29.2657C54.8186 28.5021 54.8802 28.5021 55.2807 29.0519C55.5272 29.3573 55.7429 29.7238 55.7429 29.907C55.7429 30.0597 55.8661 30.0292 56.0201 29.7849C56.2358 29.4489 56.4206 29.51 56.9752 30.0597C57.4681 30.5484 57.6529 31.1287 57.6837 32.2281C57.7146 33.0527 57.807 33.7246 57.8994 33.7246C57.9918 33.7246 58.0843 34.2133 58.1151 34.7936C58.1459 35.3739 58.0226 35.8625 57.8378 35.8625C57.6529 35.8625 57.6529 36.0458 57.8994 36.3206C58.1151 36.565 58.1459 36.7788 57.9918 36.7788C57.807 36.7788 57.7454 37.1147 57.807 37.5423C57.8994 37.9393 57.807 38.9472 57.5913 39.7718C57.4065 40.5964 57.2216 41.4821 57.16 41.7569C57.0676 42.4594 56.2974 43.2229 55.8661 43.0702C55.6196 42.9786 55.5272 43.0702 55.6504 43.3756C55.7737 43.681 55.6504 43.7421 55.3115 43.62C54.911 43.4672 54.8186 43.62 54.8186 44.3835C54.8186 44.9027 54.6954 45.3303 54.5105 45.3303C54.3565 45.3303 54.2025 45.1775 54.2025 45.0248C54.2025 44.8416 54.0484 44.7194 53.8636 44.7194C53.6479 44.7194 53.6171 45.0554 53.7403 45.6357C53.8944 46.3381 53.8328 46.5519 53.4939 46.5519C53.2474 46.5519 52.9701 46.7657 52.8469 47.01C52.7545 47.2543 52.1691 47.7125 51.5838 47.9873C50.6287 48.4454 50.4439 48.4454 50.1974 48.0789C49.5196 47.01 50.105 45.0248 51.06 45.0248C51.3373 45.0248 51.7686 45.2997 51.9843 45.6357C52.3848 46.277 52.9701 46.4603 52.9701 45.9411C52.9701 45.3303 51.6146 44.414 50.9984 44.6278C50.6287 44.7194 50.105 44.8416 49.7969 44.8721C49.0575 44.9332 48.6262 45.6357 48.8419 46.3992C48.9651 46.8878 48.9343 46.9184 48.6878 46.5519C48.2257 45.88 48.5338 45.147 49.9202 43.8643C50.5979 43.2535 51.3373 42.5816 51.5222 42.3983C53.3398 40.7186 54.11 39.222 53.155 39.222C52.6312 39.222 52.1999 39.6191 50.6287 41.5126C49.5813 42.7953 49.458 42.8564 49.0883 42.3678C48.5954 41.6959 48.5338 38.7334 48.9959 38.428C49.2424 38.3058 49.2116 38.1531 48.9343 37.9699C48.657 37.7866 48.9651 37.695 49.7969 37.695C51.06 37.695 51.0909 37.6644 50.7828 36.962C50.5055 36.4123 50.5671 36.0152 51.1217 34.9463C52.1075 33.0527 51.6454 33.1138 50.4747 35.0685L49.458 36.7482L48.2257 34.2438C47.5479 32.8695 47.0242 31.6479 47.055 31.4952C47.0858 31.373 46.9934 31.2814 46.8086 31.2814C46.3772 31.2814 46.4389 31.8922 46.9626 32.8084C47.5788 33.8774 47.5788 34.5493 46.9626 34.0301C46.7161 33.8163 46.5005 33.7857 46.5005 33.969C46.5005 34.1217 46.7161 34.4271 46.9934 34.6714C48.1641 35.6182 48.4106 36.7177 48.1949 39.955C47.9484 43.5894 47.856 44.3835 47.3939 45.544C47.2091 46.0022 47.055 47.2543 47.0858 48.2927C47.1166 49.7892 47.0242 50.2474 46.5929 50.4917C46.1924 50.736 46.1308 50.8887 46.4081 51.072C46.8702 51.3774 46.5005 52.9655 45.5762 54.4315C45.1141 55.195 44.806 55.4088 44.3439 55.2561C43.851 55.1034 43.697 55.2866 43.4505 56.2639C43.2656 56.9053 42.8651 57.6383 42.5879 57.8826C41.7252 58.5545 40.7086 59.0737 40.1849 59.0737C39.9384 59.0737 39.7227 59.2264 39.7227 59.4097C39.7227 59.5929 39.9384 59.654 40.2465 59.5624C40.6778 59.3791 40.6162 59.5013 40.0924 60.0816C39.7227 60.4786 39.4147 60.9978 39.4147 61.2421C39.4147 61.517 39.0758 61.8835 38.6753 62.1278C38.244 62.3416 37.751 62.9219 37.5354 63.4106C37.0424 64.6017 34.9783 66.1592 34.0849 66.0371C33.6536 66.0065 33.1606 66.0982 32.9142 66.2814C32.6677 66.4952 32.1748 66.7395 31.8051 66.8312L31.1273 67.0449L31.2814 63.4716C31.3738 61.4865 31.497 59.7762 31.5586 59.654C31.6511 59.5624 32.1132 59.3791 32.6061 59.2875C33.1298 59.1653 34.1773 58.4629 35.0091 57.6688C35.8101 56.8748 36.5803 56.2334 36.6727 56.2639C36.7652 56.2639 36.8884 55.928 36.9192 55.4699C36.95 55.0118 36.9808 54.3704 37.0116 54.0345C37.1657 52.7823 36.6111 50.9498 35.8717 50.1252C35.0091 49.1784 32.8526 48.1095 31.8051 48.0789C31.1889 48.0789 31.0965 47.9262 31.0965 46.8878C31.0965 46.2159 31.0041 45.4219 30.9117 45.1165C30.7576 44.7194 30.8501 44.75 31.2197 45.2692C32.8834 47.4681 36.4571 47.4681 38.6136 45.2692C39.0758 44.7805 39.2298 44.75 39.4455 45.0859C39.5995 45.2997 40.3081 45.6357 41.0167 45.7884L42.3414 46.1243L42.403 48.5371C42.4338 49.8809 42.3106 51.2247 42.1258 51.5301C41.8793 51.9882 41.9101 52.0798 42.1874 51.8966C42.4954 51.7133 42.5263 51.9271 42.3414 52.8434C42.0641 54.3399 41.9717 54.4926 41.2631 54.4926C40.9551 54.4926 40.5854 54.6147 40.4929 54.798C40.3697 54.9812 40.647 55.1034 41.1399 55.1034C41.9101 55.1034 41.9409 55.1645 41.7561 56.325C41.5404 57.6688 42.0025 58.0353 42.3106 56.7831C42.4338 56.3556 42.6495 54.5231 42.8035 52.7212C43.3273 47.1322 43.3889 46.8573 44.652 45.5135C46.1308 43.8948 46.5621 42.6426 46.0075 41.6348C45.3914 40.5353 45.4838 40.2299 46.5005 39.6191C47.0242 39.3442 47.4247 38.825 47.4247 38.5196C47.4247 38.0004 47.3939 38.0004 46.901 38.4585C46.1924 39.1915 45.1141 39.5275 43.5429 39.5275C42.1874 39.5275 41.5712 40.1077 42.896 40.1688C43.4813 40.1994 43.4813 40.2299 42.6495 40.5964C42.1566 40.8102 41.6636 40.8713 41.5712 40.7186C41.4788 40.5964 40.7394 40.5353 39.9076 40.5964C39.1066 40.688 38.2748 40.6575 38.0591 40.5353C37.5046 40.1688 35.9334 40.4742 35.502 40.9934C35.2864 41.2988 35.1324 41.3599 35.1015 41.1461C35.1015 40.6269 36.0874 38.6112 36.3339 38.6112C36.4571 38.6112 36.4879 38.2447 36.3955 37.8172C36.2414 36.9315 36.8268 36.4123 38.1823 36.3206C39.4147 36.1985 42.9268 35.2517 43.2348 34.9463C43.6661 34.5187 44.2207 34.5798 44.7752 35.1295C45.0525 35.3739 45.2682 35.496 45.2682 35.3433C45.2682 34.8547 44.806 34.3966 44.1899 34.2438C43.5737 34.0911 43.5737 34.0911 44.1899 33.8774C44.9601 33.633 44.9909 32.4725 44.2515 31.6479C43.9742 31.3424 43.7278 30.976 43.7278 30.8232C43.7278 30.4262 41.4788 28.5327 41.0167 28.5327C40.7394 28.5327 40.8934 28.8686 41.3864 29.4794C42.4338 30.7011 42.403 31.6479 41.2631 32.5946C40.4929 33.2665 40.1849 33.3276 39.3838 33.1138C38.3056 32.8084 37.751 32.2281 37.0424 30.6705C36.5803 29.6321 36.5803 29.6016 37.4429 28.9297C37.9359 28.5327 38.7061 28.2273 39.199 28.2273C39.6611 28.2273 40.0308 28.0746 40.0308 27.9218C40.0308 27.7386 40.5237 26.8529 41.1707 25.9367C42.403 24.0737 43.05 21.6609 42.7111 20.1339C42.6495 19.7979 42.6495 19.7063 42.7111 19.8896C42.8035 20.1644 43.05 20.1339 43.6661 19.7368C44.0975 19.462 44.3747 19.3704 44.2823 19.5231C44.1591 19.7063 44.1899 20.0423 44.3439 20.2866C44.5288 20.592 44.806 20.4698 45.5762 19.7368C46.5929 18.6985 47.3015 18.4541 46.9934 19.2176C46.7469 19.859 47.1166 19.7979 47.9176 19.0344L48.6262 18.393L48.8419 19.5231C48.9343 20.1339 49.2424 20.7142 49.458 20.8058C49.951 20.989 50.0434 21.8136 49.5505 21.8136C49.3964 21.8136 49.304 21.9358 49.4272 22.119C49.5196 22.2718 49.7969 22.3328 50.0434 22.2107C50.5055 22.058 50.6595 22.4245 50.5055 23.3102C50.4747 23.585 50.6287 23.6766 50.9984 23.5239C51.3065 23.4018 51.4605 23.4018 51.3681 23.5239C51.0909 23.7683 52.2924 24.7456 53.4014 25.1732C53.9252 25.3564 54.2025 25.3564 54.2025 25.1732C54.2025 24.9899 54.11 24.8677 53.956 24.8677C53.4014 24.8677 50.752 21.9663 50.0434 20.592C49.1191 18.7595 49.0883 18.1182 49.8893 17.5379C50.2282 17.2936 50.5055 16.9271 50.5055 16.7133C50.5055 16.469 50.8752 16.1635 51.3065 16.0108L52.0767 15.7054L51.4914 14.9419C50.5055 13.6897 51.0909 12.3459 52.6312 12.3459C53.8636 12.3459 55.2807 11.7045 56.0817 10.7883C56.8827 9.87209 57.16 9.74992 57.4065 10.1775ZM9.13047 11.2464C9.99309 11.277 10.8249 11.3991 10.9481 11.5213C11.0714 11.6435 11.6259 11.7351 12.2113 11.7351C13.2895 11.7351 13.4436 12.01 12.889 12.9873C12.6118 13.5065 12.2729 13.5676 10.4244 13.537C7.83654 13.4759 7.31281 13.7508 9.50017 14.0562C10.3628 14.1784 11.0714 14.3311 11.0714 14.4227C11.0714 14.8197 9.06886 16.2857 8.32947 16.4384C5.86483 16.8965 5.15625 16.9271 4.60171 16.6217C4.20121 16.4079 4.04717 16.0719 4.10878 15.6138C4.20121 15.2473 4.26282 14.6976 4.26282 14.4227C4.29363 14.1478 4.50928 13.6897 4.78656 13.4148C5.15625 13.0484 5.18706 12.8346 4.90979 12.4986C4.66332 12.1932 4.66332 11.9183 4.90979 11.4602C5.18706 10.941 5.43352 10.8494 6.38857 11.0021C7.00473 11.0937 8.23704 11.2159 9.13047 11.2464ZM18.4345 13.0178C18.4345 13.4148 18.3112 13.9646 18.188 14.27C18.0032 14.7587 17.9107 14.7892 17.6026 14.4227C17.3254 14.0868 17.3254 13.7813 17.6335 13.1705C18.0956 12.1627 18.4653 12.1016 18.4345 13.0178ZM43.9126 13.3232C44.1899 14.6365 43.6661 14.9114 42.9576 13.873C42.6187 13.3538 42.1566 12.9567 41.9409 12.9567C41.1091 12.9567 41.8793 12.4986 42.7727 12.4681C43.5737 12.4375 43.7278 12.5597 43.9126 13.3232ZM19.9441 14.667C19.4511 15.736 18.8966 15.9192 18.6809 15.0946C18.5885 14.667 18.7733 14.27 19.3279 13.8424C20.2829 13.1094 20.4986 13.4148 19.9441 14.667ZM42.1874 14.3616C42.5571 14.9419 42.8035 15.4916 42.7111 15.5833C42.4954 15.7971 41.2631 14.1784 41.2631 13.6897C41.2631 13.0178 41.4788 13.1705 42.1874 14.3616ZM13.2279 15.3389C13.2279 17.0187 9.28451 19.3704 6.5118 19.3704C5.98806 19.3704 5.46433 19.5231 5.3411 19.7063C5.18706 19.9506 5.67999 19.9812 7.09715 19.8285C9.65421 19.5231 11.4103 18.9122 12.0572 18.0571C12.5193 17.5074 12.6118 17.4768 12.6118 17.9044C12.6118 18.4236 11.5027 19.6758 11.0406 19.6758C10.9173 19.6758 10.7325 19.9201 10.6401 20.195C10.4552 20.7447 9.74663 21.2334 7.22038 22.6382C5.58756 23.5239 5.06383 23.4934 4.66332 22.4855C3.98555 20.7752 3.95474 20.3782 4.44767 20.1644C5.12544 19.9201 5.00221 19.462 4.1704 19.2482C3.61586 19.126 3.4002 18.8206 3.30778 17.996C3.21535 17.263 3.30778 16.9271 3.58505 16.9271C3.8007 16.9271 3.98555 17.0492 3.98555 17.2325C3.98555 17.6906 7.92896 17.2325 9.34613 16.5911C10.0239 16.2552 11.0714 15.6749 11.6567 15.2473C12.735 14.4532 13.2279 14.4838 13.2279 15.3389ZM14.6451 19.7979C14.337 21.0501 11.6567 23.4323 9.2229 24.654C6.57342 25.9978 6.08049 26.0283 5.40271 25.0205C4.75575 24.0431 4.75575 24.0431 5.80322 23.7988C8.51431 23.2185 12.735 20.0423 13.536 17.996L13.9057 17.0798L14.3678 18.0265C14.6759 18.6068 14.7683 19.3093 14.6451 19.7979ZM36.0258 30.6705C36.0258 31.037 36.5803 31.8616 37.2581 32.5335C37.9359 33.2055 38.4904 33.8468 38.4904 33.9079C38.4904 34.1522 36.8268 33.633 35.5637 33.0222C34.393 32.4419 34.3622 32.4114 35.0399 32.106C35.4096 31.9227 35.7177 31.6784 35.7177 31.5257C35.7177 31.373 35.5329 31.3424 35.348 31.4952C34.7318 31.8616 34.0849 31.8922 33.6536 31.5257C33.0374 31.037 33.1606 30.7622 34.1157 30.4262C35.4712 29.907 36.0258 29.9986 36.0258 30.6705ZM29.8026 31.1897C28.2314 31.4341 28.9092 31.8922 30.7268 31.8616C31.6819 31.8311 32.1132 31.7395 31.6511 31.6784C31.1581 31.6173 30.7884 31.4035 30.7884 31.2508C30.7884 30.7927 31.8975 30.9454 32.3288 31.4341C32.5445 31.6784 32.8834 31.8922 33.1298 31.8922C33.9308 31.8922 33.8692 32.503 33.0066 32.9306C31.9591 33.4498 31.2506 34.8852 31.4662 36.0152C31.6203 36.7177 31.5278 36.7788 30.4187 36.7788C29.248 36.7788 29.2172 36.7482 29.3713 35.9236C29.6177 34.8547 28.6319 33.2055 27.4612 32.7779L26.6294 32.4419L27.492 31.7089C28.1081 31.1897 28.6935 30.976 29.4945 31.0065C30.4187 31.0676 30.4804 31.0981 29.8026 31.1897ZM44.0358 32.503C44.0358 33.236 43.0808 34.2438 41.9409 34.6714C40.5237 35.2212 37.8743 35.6182 37.0116 35.4044C36.0874 35.1906 33.6228 33.2665 33.9 32.9611C33.9925 32.8695 34.8859 33.1749 35.8717 33.6025C37.597 34.3966 37.7818 34.4271 39.5379 34.0606C40.9551 33.7857 41.602 33.4803 42.1874 32.8084C43.1116 31.77 44.0358 31.6173 44.0358 32.503ZM16.586 34.366C16.8325 34.702 17.2946 34.9463 17.6026 34.9463C17.8799 34.9463 18.2188 35.099 18.3112 35.2517C18.4345 35.4349 18.6193 35.496 18.7733 35.4044C18.8966 35.3128 19.5127 35.4655 20.1289 35.7098C20.7142 35.9541 21.6077 36.1679 22.039 36.1679C22.5011 36.1679 23.3329 36.3206 23.8875 36.5344C24.6885 36.8093 24.9041 37.0842 25.0582 37.9699C25.1506 38.5807 25.5819 39.5885 26.0132 40.1994C26.7526 41.2988 26.7834 41.3599 26.1981 41.3599C25.4587 41.3599 25.089 40.8713 25.6127 40.6575C25.8284 40.5658 25.7051 40.4742 25.3662 40.4742C24.3496 40.4437 23.1789 43.1618 24.0107 43.6505C24.1647 43.7421 24.288 43.5894 24.2572 43.284C24.1339 41.7875 24.2572 41.6653 25.8284 41.6653C26.691 41.6653 27.4612 41.7875 27.5536 41.9707C27.8001 42.3678 28.94 42.3678 28.94 41.9402C28.94 41.7875 29.094 41.7264 29.248 41.818C29.7102 42.0929 29.6177 43.5894 29.0632 44.3529C28.3854 45.2997 27.0299 45.9411 25.5819 45.9411C23.8258 45.9411 22.1622 44.4751 22.1622 42.9786C22.1622 41.6348 22.6551 40.7186 23.2405 40.9323C23.487 41.0545 23.7026 40.9629 23.7026 40.7491C23.7026 40.5048 23.3945 40.4437 22.6551 40.5658C21.4844 40.7796 18.5885 40.2604 17.7259 39.6496C17.4178 39.4358 16.7708 39.3137 16.3395 39.4053C15.7542 39.5275 15.3537 39.3747 14.9532 38.9472C14.4294 38.3669 14.3986 38.3058 14.8916 38.3058C15.6618 38.3058 15.2304 37.7866 14.337 37.6339C13.1663 37.3896 13.1663 38.3363 14.337 39.5885C15.0148 40.3521 15.4153 40.5964 15.6618 40.3521C15.8774 40.1383 16.2163 40.2299 16.8016 40.5964C17.387 40.9629 18.3112 41.1461 19.7592 41.1767C21.6385 41.2072 21.8541 41.2683 21.8541 41.818C21.8541 43.5283 19.7592 45.3303 17.7567 45.3303C16.2163 45.3303 14.4294 43.3145 14.8916 42.0624C14.984 41.8486 14.8916 41.6653 14.7067 41.6653C14.491 41.6653 14.4602 42.0929 14.5835 42.948C14.7067 43.8948 15.0456 44.5056 15.7542 45.0859C16.3087 45.5746 16.8325 45.9411 16.9557 45.9411C17.2946 45.9411 17.9415 47.6208 18.0032 48.6898C18.188 52.5379 18.5885 55.6531 18.9582 56.1723C19.5127 56.9359 19.5127 57.2413 18.9582 57.2413C18.2188 57.2413 17.1713 55.6837 17.387 54.8896C17.4794 54.4926 17.4178 54.1872 17.233 54.1872C17.0789 54.1872 16.9249 54.4926 16.9249 54.8591C16.9249 55.5004 16.9249 55.5004 16.3087 54.7674C15.9698 54.3704 15.5077 53.8207 15.2921 53.5763C14.7683 53.0266 14.3062 51.3163 14.7067 51.5606C14.8916 51.6522 15.0764 51.3468 15.1688 50.8887C15.3845 49.8503 15.2921 49.7587 14.6759 50.3695C14.3986 50.6139 14.1522 50.8276 14.0905 50.8276C14.0289 50.8276 13.9673 49.7282 13.9365 48.3844C13.9057 47.01 13.7825 45.7578 13.5976 45.544C13.1355 44.9332 12.7966 42.6121 12.7966 39.5275C12.7658 36.7788 12.8274 36.565 13.69 35.3433C14.2138 34.6409 14.7991 34.0606 15.0148 34.0301C15.2304 34.0301 15.5077 33.7857 15.6001 33.5109C15.7542 33.1138 15.8466 33.1138 15.939 33.3887C16.0314 33.633 16.3087 34.0606 16.586 34.366ZM34.0233 34.0301C34.1157 34.1828 33.9308 34.3355 33.592 34.3355C33.2223 34.3355 32.945 34.4882 32.945 34.6714C32.945 34.8547 33.1298 34.9463 33.3455 34.8547C33.5303 34.7936 34.0233 35.0074 34.4238 35.3433C34.8243 35.7098 35.1015 35.832 35.1015 35.5877C35.1015 35.3739 35.2556 35.3128 35.4096 35.4044C35.5945 35.496 35.7177 36.1679 35.7177 36.9009C35.7177 37.8782 35.4712 38.5501 34.7935 39.4664C33.6844 40.9629 32.1132 41.5126 29.6794 41.2072C27.2763 40.9323 26.0748 39.8023 25.5203 37.4507C25.243 36.1679 25.4279 35.5877 26.2905 35.2212C26.6294 35.0685 27.2455 34.7325 27.6152 34.4576C28.2622 33.9995 28.3238 33.9995 28.5087 34.4576C28.6011 34.702 28.4162 35.3128 28.0465 35.8014L27.4304 36.6871L28.4162 37.6339C29.0632 38.2447 29.741 38.6112 30.2647 38.6112C31.4662 38.6112 33.2531 37.8172 33.2531 37.2674C33.2531 37.0231 33.3455 36.626 33.4379 36.3512C33.5611 35.9847 33.4379 35.8625 32.9758 35.8625C32.4521 35.8625 32.3288 35.6793 32.3288 34.9768C32.3288 34.1522 32.5445 33.9384 33.6228 33.7552C33.746 33.7552 33.9308 33.8468 34.0233 34.0301ZM45.5146 41.4821C46.1308 43.62 44.9601 45.3303 42.896 45.3303C40.801 45.3303 39.1066 43.7727 39.1066 41.818C39.1066 41.0545 39.8152 40.7491 40.1849 41.3599C40.4313 41.7264 42.6803 41.421 43.7278 40.8713C44.8985 40.2604 45.2065 40.3521 45.5146 41.4821ZM38.3056 41.421C38.6753 42.8564 38.4904 43.8032 37.597 44.7805C36.7652 45.6967 36.5495 45.7884 34.8243 45.7884C33.2223 45.7884 32.8834 45.6662 32.0516 44.9027C31.0041 43.9254 30.6652 41.9707 31.5278 41.9707C31.7743 41.9707 32.2364 41.8791 32.5445 41.7875C33.0374 41.6348 33.0374 41.6653 32.5137 42.0929C31.8975 42.5816 31.9283 42.5816 32.5445 42.5816C32.9142 42.5816 33.592 42.3983 34.0849 42.154C37.2581 40.5964 38.0283 40.4437 38.3056 41.421ZM30.542 45.6051C30.6652 47.6514 30.542 48.0789 29.7718 48.0789C28.3546 48.0789 26.0748 49.9114 25.3662 51.6217C24.0107 54.8285 26.1056 58.5545 29.6794 59.2875L30.9117 59.5624L30.8192 63.0441C30.7884 64.9681 30.696 66.6479 30.6036 66.7395C30.4804 66.9228 29.7718 66.8006 27.7076 66.2203C27.2763 66.0982 26.5678 65.7011 26.1364 65.3041C25.7051 64.8765 25.243 64.6627 25.1198 64.7849C24.9965 64.9376 24.9349 64.8154 24.9965 64.5711C25.0582 64.2962 24.8117 64.0825 24.4112 64.0214C24.0107 63.9603 23.7026 63.716 23.7026 63.4411C23.7026 62.983 21.7001 60.3259 21.0223 59.8983C20.4678 59.5624 19.9441 58.4934 19.6668 57.2413C19.5435 56.661 19.3587 55.8364 19.2663 55.4088C18.8042 53.5153 18.4037 48.873 18.6193 47.6208C18.7733 46.4297 18.9582 46.1854 19.79 45.8189C20.3446 45.6051 20.9607 45.2081 21.1764 44.9332C21.5461 44.5056 21.7001 44.5973 22.686 45.6662C23.7026 46.7657 23.8875 46.8573 25.4895 46.8573C27.3688 46.8573 28.9092 46.0938 29.5869 44.8111C30.1723 43.7421 30.4187 43.9559 30.542 45.6051ZM4.60171 48.2317L5.49514 48.6898L4.72494 49.8198C4.1704 50.6444 4.07797 51.0109 4.35525 51.1636C5.06383 51.5912 3.06131 51.8355 2.26031 51.4385C1.4593 50.9803 1.24365 49.9114 1.98304 49.9114C2.2295 49.9114 2.35273 49.7282 2.26031 49.4838C2.01384 48.873 2.66081 47.7735 3.24616 47.7735C3.49262 47.7735 4.10878 47.9873 4.60171 48.2317ZM58.7928 48.7203C58.9777 49.2395 59.0393 49.7892 58.9469 49.9419C58.8545 50.0947 58.9469 50.2168 59.1009 50.2168C59.2858 50.2168 59.4398 50.0641 59.4398 49.8503C59.4398 49.6671 59.5014 49.5755 59.5938 49.6671C59.9019 49.9419 59.1933 51.3468 58.6696 51.5606C57.8994 51.8355 56.6671 51.4385 56.8827 50.9498C56.9444 50.736 56.7595 50.1557 56.3898 49.6365L55.7429 48.7508L56.4514 48.2927C57.5913 47.4987 58.4231 47.6514 58.7928 48.7203ZM32.7601 48.9036C36.7652 50.339 37.4738 54.9507 34.0849 57.6078C33.0066 58.4629 32.5753 58.6156 31.1273 58.6156C28.2622 58.6156 26.3213 57.0886 25.8592 54.462C25.4587 52.2936 26.9066 49.7892 29.094 48.8119C30.3263 48.2622 30.9733 48.2927 32.7601 48.9036ZM11.9956 58.4934C11.9956 58.6461 11.8724 58.7683 11.7491 58.7683C11.4719 58.7683 11.0406 59.1043 9.13047 60.784C8.63755 61.2116 8.0522 61.4865 7.80573 61.3948C7.15877 61.1505 7.282 59.9289 8.083 59.0737C8.66835 58.4629 9.13047 58.3102 10.3936 58.2797C11.287 58.2491 11.9956 58.3713 11.9956 58.4934ZM52.9393 58.8905C53.3398 59.257 53.4939 59.7456 53.4631 60.387C53.3398 61.853 53.309 61.8835 52.9085 61.6086C52.6929 61.4865 52.3848 61.3643 52.1999 61.3643C52.0459 61.3643 51.8919 61.0589 51.9227 60.6924C51.9227 60.2648 51.7686 60.051 51.4297 60.0816C50.9368 60.1121 49.0267 58.8294 48.9959 58.4324C48.9343 57.9742 52.3848 58.3713 52.9393 58.8905Z"
        fill="white" />
    <path
        d="M42.9537 25.2325C43.0461 25.6296 43.2926 26.332 43.539 26.8512C44.8946 29.7221 45.141 30.1802 45.5724 30.3024C45.9421 30.4245 45.9421 30.3634 45.5415 29.8748C45.2643 29.5694 44.9254 28.9585 44.8022 28.5921C44.5249 27.6453 43.1077 24.5606 42.9537 24.5606C42.8921 24.5606 42.8921 24.866 42.9537 25.2325Z"
        fill="white" />
    <path
        d="M38.8292 30.7012C39.6919 31.7701 40.3388 32.0755 41.1706 31.7396C41.6019 31.5869 41.5711 31.4953 41.0166 31.0982C40.6469 30.8539 40.4004 30.4874 40.4929 30.3347C40.6161 30.182 40.3388 30.0598 39.9075 30.0598C39.507 30.0598 38.8908 29.9682 38.5828 29.846C38.1515 29.6933 38.1823 29.846 38.8292 30.7012Z"
        fill="white" />
    <path
        d="M32.9422 50.4319C32.9422 50.6152 33.0963 50.829 33.2503 50.89C33.4352 50.9511 33.6508 51.6841 33.774 52.5698C33.9281 54.0358 33.8973 54.219 33.0038 55.0742C32.3569 55.7461 31.7715 56.0209 31.0938 56.0209C30.57 56.0209 30.2003 56.1431 30.2928 56.2958C30.6008 56.7539 32.7266 56.0515 33.466 55.2574C34.267 54.4328 34.7907 52.0506 34.2054 52.0506C33.9897 52.0506 33.8973 51.9284 33.9897 51.7757C34.0821 51.623 33.8973 51.1649 33.5584 50.7984C33.2195 50.4014 32.973 50.2181 32.9422 50.4319Z"
        fill="white" />
    <path
        d="M29.0947 50.884C27.4618 51.8003 27.1846 54.0908 28.4785 55.4957C29.1871 56.2287 29.8649 56.5647 29.8649 56.1982C29.8649 56.1066 29.4644 55.6484 28.9406 55.1598C27.8007 54.0298 27.7083 52.6554 28.6942 51.7697C29.4335 51.0673 31.1588 50.6397 31.7441 51.0062C31.9906 51.1284 32.0522 51.0978 31.8982 50.884C31.6209 50.4259 29.8957 50.4259 29.0947 50.884Z"
        fill="white" />
    <path
        d="M29.0658 52.511C28.2956 53.6716 28.6961 54.7405 29.9901 54.9848C31.5921 55.2597 32.9168 54.71 32.9476 53.7632C32.9476 53.5799 32.6703 53.7632 32.3315 54.1297C31.4072 55.107 29.9592 55.0459 29.4971 54.0075C29.035 52.9997 29.4355 52.2972 30.5754 52.175C31.5613 52.0834 31.7153 52.2972 31.3764 53.244C31.1916 53.7021 30.9451 53.8853 30.637 53.7632C30.3906 53.6716 30.1749 53.7632 30.1749 53.9159C30.1749 54.1297 30.4522 54.1908 30.8835 54.0686C31.2532 53.977 31.6537 53.8853 31.8077 53.8853C32.1774 53.8853 32.0542 52.511 31.6537 52.114C31.0067 51.4726 29.6204 51.6864 29.0658 52.511Z"
        fill="white" />
    <path
        d="M27.2759 55.8051C28.0153 56.7519 29.6789 57.546 30.942 57.546C32.0819 57.546 33.5607 56.9962 33.5607 56.5686C33.5607 56.4465 33.7764 56.3243 34.0228 56.3243C34.2693 56.3243 34.4849 56.2632 34.4849 56.2022C34.4849 56.1411 34.5774 55.8051 34.7006 55.4997C34.8546 55.0721 34.6698 55.1332 33.992 55.744C32.7597 56.8435 31.9279 57.2405 30.7572 57.2405C29.6789 57.2405 27.8612 56.2632 27.584 55.5608C27.4915 55.3165 27.2759 55.1027 27.091 55.1027C26.9062 55.1027 26.9986 55.4081 27.2759 55.8051Z"
        fill="white" />
    <path
        d="M22.5635 5.20151C21.7009 5.78179 20.7458 6.63694 20.4685 7.06451C19.9448 7.82804 19.9448 7.91966 20.6226 9.26347C20.9923 10.027 21.6392 11.2486 22.0397 11.9816L22.8099 13.2643L24.5352 12.0427C25.4902 11.3708 26.4145 10.8211 26.5993 10.8211C27.5852 10.7905 27.7084 10.3629 27.2771 8.34723C27.0614 7.2783 26.5993 5.87341 26.2912 5.23205C25.5827 3.76608 24.72 3.76608 22.5635 5.20151ZM25.0281 5.14042C25.7367 5.65962 25.7059 5.93449 24.9357 5.93449C24.0731 5.93449 21.6392 7.64479 21.9781 7.98074C22.0089 8.04182 22.6559 7.76695 23.3953 7.431C24.1347 7.06451 24.9357 6.7591 25.1822 6.72856C25.3978 6.69802 25.7059 6.48423 25.8599 6.27044C25.9832 6.05666 26.168 5.99557 26.2604 6.14828C26.4453 6.42315 25.521 7.40046 24.6276 7.85858C24.3195 8.01128 24.412 8.04182 24.8741 7.9502C25.4902 7.82804 25.521 7.88912 25.1822 8.31669C24.8433 8.74427 24.8741 8.77481 25.3978 8.56102C25.7367 8.43886 26.2296 8.25561 26.4761 8.13345C26.7842 8.04182 26.7225 8.22507 26.2912 8.71373C25.9215 9.11076 25.6751 9.59942 25.7675 9.78266C25.8291 9.96591 25.6443 10.2102 25.367 10.3324C24.9357 10.4851 24.9049 10.4546 25.2438 10.0575C25.7983 9.38563 25.367 9.50779 24.0731 10.3629C22.964 11.1265 22.163 11.3403 22.163 10.8821C22.163 10.76 22.7483 10.2713 23.4877 9.8132C24.6584 9.01914 24.5968 8.92751 23.1796 9.50779C22.8099 9.6605 22.7483 9.59942 22.9332 9.26347C23.1796 8.89697 23.118 8.89697 22.6867 9.26347C22.1014 9.72158 21.9781 10.0575 22.5327 9.72158C22.7483 9.59942 22.7791 9.62996 22.6559 9.84375C22.317 10.3935 21.5468 9.90483 21.5776 9.20238C21.6084 8.83589 21.516 8.07236 21.3928 7.52263C21.2387 6.91181 21.2695 6.54531 21.4852 6.54531C21.6701 6.54531 22.0089 6.36207 22.2246 6.14828C22.7175 5.69016 24.1039 4.74339 24.3195 4.74339C24.412 4.74339 24.72 4.92664 25.0281 5.14042Z"
        fill="white" />
    <path
        d="M35.1939 5.53413C34.855 6.35873 34.3929 7.73308 34.1772 8.58823L33.8075 10.2069L32.1747 10.0237C30.4187 9.80987 28.3237 10.0847 28.3237 10.5123C28.3237 10.6345 29.1247 10.6956 30.1414 10.6039C31.1273 10.5123 32.1747 10.5734 32.4828 10.7566C32.8833 10.9704 33.2222 10.9399 33.5919 10.7261C33.9924 10.4818 34.3621 10.4818 34.9474 10.7566C35.3787 10.9704 36.0565 11.1231 36.457 11.1231C36.8267 11.1231 37.4737 11.4591 37.8742 11.8867C38.7676 12.8334 38.4287 12.864 37.1656 11.9783C36.457 11.4896 36.6727 11.8256 37.905 13.1694C39.0757 14.4216 39.7535 15.46 40.0307 16.4067C40.5545 18.3614 40.308 21.3849 39.4762 22.9731C38.6752 24.5001 38.6136 24.775 39.2297 24.1642C39.9383 23.4923 40.955 20.1633 40.955 18.6362C40.955 17.6895 40.6161 16.6205 39.7843 14.9713L38.6136 12.6807L40.0924 10.3902C41.9408 7.51929 41.8792 7.12226 39.3222 5.38142C36.7343 3.64058 36.0257 3.67112 35.1939 5.53413ZM39.0449 5.77845C40.4312 6.72523 40.6161 6.93901 40.3388 7.45821C40.154 7.76362 39.9999 8.37444 39.9691 8.77148C39.9075 9.62663 39.4146 9.65717 38.552 8.8631C38.2131 8.58823 37.6585 8.31336 37.3196 8.28282C36.9808 8.28282 36.7343 8.16066 36.8267 8.00795C36.8883 7.88579 36.6727 7.64146 36.3338 7.45821C35.5944 7.06118 35.5328 6.66414 36.1797 6.41982C36.4262 6.32819 36.8883 6.51144 37.1656 6.78631C37.4737 7.09172 38.0898 7.51929 38.552 7.73308C39.0141 7.97741 39.3222 8.31336 39.1989 8.46607C39.1065 8.64931 39.1681 8.67985 39.353 8.55769C39.9075 8.22174 39.7843 7.91633 38.9525 7.45821C38.5212 7.24442 38.1823 6.87793 38.1823 6.6336C38.1823 6.41982 38.0898 6.23657 37.9666 6.23657C37.4429 6.20603 36.5803 5.35088 36.7959 5.04547C37.0732 4.55681 37.2888 4.6179 39.0449 5.77845ZM37.3504 9.32122C38.3055 9.99312 39.1065 10.6956 39.1065 10.8483C39.1065 11.2453 37.1348 10.1458 35.7176 8.98526C34.0848 7.61092 35.2863 7.88579 37.3504 9.32122Z"
        fill="white" />
    <path
        d="M26.787 12.2547C24.8153 12.9571 22.1042 15.7364 21.5805 17.5994C21.0875 19.3707 21.2416 21.9362 21.9502 23.1884C22.2274 23.677 22.5355 24.3184 22.6279 24.5627C22.7512 24.807 23.1825 25.2957 23.6446 25.6317L24.4764 26.2119L23.583 25.1735C21.18 22.3027 20.9027 18.7294 22.8744 15.9196C23.7986 14.5758 23.7986 15.1561 22.8744 16.8053C21.2724 19.6762 22.0426 23.4022 24.6921 25.6622C27.9885 28.4109 33.195 28.3804 36.8612 25.6011C37.4157 25.1735 37.8778 24.9903 37.8778 25.143C37.8778 25.3262 37.6006 25.6011 37.2309 25.7844C36.892 25.9981 36.6763 26.2119 36.7688 26.3341C37.0768 26.609 38.5248 25.0819 38.34 24.6543C38.2783 24.41 38.5556 23.677 38.9869 23.0051C39.8187 21.6613 40.2809 18.5156 39.8187 17.2939C39.6031 16.7442 39.5415 17.1107 39.5415 18.6683C39.5723 23.0967 36.3683 26.5479 31.6546 27.1893C27.3415 27.7695 22.9668 24.7154 22.5663 20.8673C22.3198 18.3934 22.8744 16.8053 24.6304 15.0645C25.4623 14.2398 25.8936 13.6901 25.5855 13.8428C25.2774 14.0261 24.8769 14.362 24.6304 14.6063C24.1375 15.2172 23.6754 15.2477 23.8911 14.6369C23.9835 14.3925 24.9693 13.7512 26.0784 13.2014C29.4981 11.5217 33.1642 11.9798 35.8445 14.4231C36.9844 15.492 37.8778 17.3856 37.847 18.7599C37.847 19.7372 37.7854 19.6762 37.3849 18.1491C37.1385 17.2329 36.7996 16.3472 36.6455 16.1945C36.4607 16.0112 36.4915 16.3472 36.6763 16.958C37.2309 18.7905 37.2617 19.7067 36.7688 20.8673C34.9511 25.1735 29.036 26.2425 26.0784 22.7608C24.8461 21.2948 24.6304 19.6151 25.4006 17.691C25.6163 17.2023 25.5855 17.1412 25.2158 17.4772C25.0001 17.691 24.7537 18.6988 24.6921 19.7678C24.5688 21.5697 24.6304 21.7835 25.5855 23.0051C27.2799 25.1735 30.2991 25.9981 33.041 25.0514C34.7662 24.4406 36.3683 23.0662 36.9228 21.7835C37.4157 20.6229 38.0627 20.0732 37.6622 21.1116C37.046 22.7913 34.2733 25.479 33.1642 25.479C32.9794 25.479 32.9178 25.5706 33.0102 25.6622C33.2567 25.876 34.8279 25.0819 35.9986 24.0741C38.3092 22.15 38.9869 18.1796 37.4773 15.6142C35.5056 12.3158 30.8536 10.8498 26.787 12.2547Z"
        fill="white" />
    <path
        d="M38.244 14.6673C38.7985 15.5225 39.2914 16.1944 39.353 16.1333C39.5687 15.9806 38.552 14.3008 37.8743 13.7205C37.4121 13.293 37.5046 13.5984 38.244 14.6673Z"
        fill="white" />
    <path
        d="M27.7676 14.2083C26.3505 14.6359 24.1631 16.8654 23.9166 18.1176C23.4237 20.4692 23.9166 22.6377 25.1798 23.8288C26.0732 24.6534 28.2914 25.9056 28.507 25.6918C28.5686 25.6307 28.0757 25.3253 27.4287 25.0199C26.751 24.7145 25.9191 24.1953 25.5803 23.8288C24.7484 22.9431 24.0091 21.1412 24.0091 19.9195C24.0091 18.8506 25.1181 16.3157 25.5803 16.3157C25.7651 16.3157 25.7959 16.4989 25.6727 16.6822C25.5186 16.9876 25.5803 16.9876 25.8883 16.6822C26.1348 16.4684 26.3197 16.1324 26.3197 15.9186C26.3197 15.2467 28.4146 14.4832 30.1706 14.4832C33.2206 14.4832 35.408 16.5295 35.408 19.3698C35.408 20.0417 35.3156 20.5914 35.1923 20.5914C35.0383 20.5914 34.9459 19.889 34.9151 19.0644C34.9151 17.8427 34.7302 17.3541 34.1757 16.8349L33.4671 16.163L33.9908 17.0487C35.1923 18.9727 34.4529 21.1106 32.204 22.2406C31.2181 22.7293 30.8484 22.7598 29.8626 22.4544C27.7368 21.8131 26.7818 19.7668 27.8909 18.2092C28.1373 17.8427 28.2606 17.5373 28.1065 17.5373C27.9833 17.5373 28.1373 17.3235 28.4454 17.0792C28.7843 16.8349 29.5853 16.6211 30.2323 16.6211C32.2964 16.6211 33.5595 18.5757 32.6353 20.3165C32.4504 20.622 32.3888 20.8968 32.4812 20.8968C32.9125 20.8968 33.4671 18.9117 33.2822 18.1787C33.005 17.2319 31.3105 16.0103 30.2631 16.0103C29.0924 16.0103 27.552 16.7738 26.8126 17.7206C25.5495 19.3087 26.258 22.1185 28.1681 23.0958C28.5378 23.3096 28.4146 23.0347 27.7984 22.4239C26.5661 21.2022 26.2272 19.7973 26.905 18.4841C27.1823 17.9649 27.552 17.5373 27.7368 17.5373C27.8909 17.5373 27.8292 17.8427 27.5828 18.2092C26.1348 20.2555 27.8909 23.0347 30.6636 23.0347C31.4338 23.0347 32.4504 22.8209 32.9125 22.5766C33.4055 22.3323 33.8984 22.2406 34.0216 22.3628C34.1757 22.485 34.1757 22.3933 34.0524 22.1795C33.9292 21.9658 34.0216 21.8131 34.2989 21.8131C35.0383 21.8131 35.7777 20.4387 35.7777 19.0033C35.8393 16.1935 33.6519 14.1167 30.5403 13.964C29.5545 13.9335 28.3222 14.0251 27.7676 14.2083Z"
        fill="white" />
    <path
        d="M31.4997 17.7546C32.578 18.9763 31.9926 20.4728 30.5447 20.1979C29.6204 20.0147 28.6962 20.5644 29.1583 20.992C29.4664 21.3279 29.9285 21.2363 29.7129 20.9004C29.528 20.5949 30.3598 20.6866 31.623 21.0531C31.8386 21.1447 31.9926 21.0836 31.9618 20.9614C31.931 20.8393 32.0851 20.4117 32.3007 20.0452C32.7937 19.0984 32.5472 18.1211 31.6538 17.5714C30.976 17.1743 30.9452 17.1743 31.4997 17.7546Z"
        fill="white" />
    <path
        d="M17.2981 27.3675C16.1582 29.8413 16.1274 30.4216 17.2365 28.2837C17.6678 27.4897 18.0683 26.7872 18.1915 26.6956C18.5304 26.4207 18.8385 25.1685 18.5612 25.1685C18.4072 25.1685 17.8527 26.1459 17.2981 27.3675Z"
        fill="white" />
</svg>