<svg width="120" height="23" viewBox="0 0 120 23" fill="none" xmlns="http://www.w3.org/2000/svg">
    <g clip-path="url(#clip0_1693_178)">
        <path
            d="M12.2222 0.703125C9.00381 0.703125 1.07715 8.52633 1.07715 11.7031C1.07715 14.8798 9.00381 22.7031 12.2222 22.7031C15.4408 22.7031 23.3675 14.8797 23.3675 11.7031C23.3675 8.52646 15.4408 0.703125 12.2222 0.703125ZM10.4855 17.9932C9.12827 17.6282 5.47936 11.3284 5.84925 9.98891C6.21915 8.64932 12.6019 5.04798 13.9591 5.41305C15.3164 5.77806 18.9653 12.0777 18.5954 13.4173C18.2255 14.7569 11.8427 18.3583 10.4855 17.9932Z"
            fill="#836EF9" />
        <path
            d="M38.9357 14.1431V14.1391L32.6029 2.61103C32.4783 2.38412 32.1338 2.43846 32.087 2.69242L28.9333 19.8135C28.9023 19.9812 29.033 20.1357 29.2057 20.1357H31.6458C31.7796 20.1357 31.8944 20.0412 31.9182 19.9112L33.7549 9.92132L38.6915 19.2101C38.7952 19.4052 39.0782 19.4052 39.182 19.2101L44.1186 9.92132L45.9552 19.9112C45.9791 20.0412 46.0938 20.1357 46.2277 20.1357H48.6678C48.8406 20.1357 48.9712 19.9812 48.9403 19.8135L45.7865 2.69242C45.7397 2.43846 45.3952 2.38412 45.2705 2.61103L38.9357 14.1431Z"
            fill="white" />
        <path
            d="M59.1994 2.93591C54.1762 2.93591 50.2412 6.78861 50.2412 11.7079C50.2412 16.6273 54.1762 20.4821 59.1994 20.4821C64.2097 20.4821 68.1349 16.6283 68.1349 11.7079C68.1349 6.78754 64.2097 2.93591 59.1994 2.93591ZM59.1994 17.5449C55.9237 17.5449 53.3572 14.9807 53.3572 11.7079C53.3572 8.43516 55.9237 5.87313 59.1994 5.87313C62.4622 5.87313 65.0189 8.43626 65.0189 11.7079C65.0189 14.9796 62.4621 17.5449 59.1994 17.5449Z"
            fill="white" />
        <path
            d="M81.9441 13.7221L71.4395 2.56337C71.2687 2.38139 70.96 2.50102 70.96 2.74942V19.8667C70.96 20.0177 71.0839 20.1401 71.2372 20.1401H73.7762C73.9295 20.1401 74.0534 20.0177 74.0534 19.8667V9.67865L84.5342 20.8584C84.705 21.041 85.0144 20.9215 85.0144 20.6728V3.55545C85.0144 3.40449 84.8905 3.28211 84.7372 3.28211H82.2206C82.068 3.28211 81.9441 3.40449 81.9441 3.55545V13.7221Z"
            fill="white" />
        <path
            d="M87.7137 20.1385H90.4403C90.5481 20.1385 90.6468 20.0765 90.6916 19.9797L92.7343 15.6136H99.2662L101.263 19.9776C101.308 20.0755 101.406 20.1385 101.515 20.1385H104.474C104.678 20.1385 104.812 19.9277 104.723 19.7462L96.3429 2.62994C96.2421 2.42405 95.9453 2.42405 95.8445 2.62994L87.4645 19.7462C87.3756 19.9277 87.5093 20.1385 87.7137 20.1385ZM94.0146 12.9047L96.0447 8.55679L98.037 12.9047H94.0146Z"
            fill="white" />
        <path
            d="M111.341 3.28113H107.151C106.998 3.28113 106.874 3.4035 106.874 3.55446V19.8657C106.874 20.0167 106.998 20.1391 107.151 20.1391H111.341C116.536 20.1391 119.764 16.9092 119.764 11.709C119.764 6.50887 116.536 3.28113 111.341 3.28113ZM111.341 17.2469H109.99V6.15081H111.341C114.714 6.15081 116.648 8.17686 116.648 11.709C116.648 15.2283 114.714 17.2469 111.341 17.2469Z"
            fill="white" />
    </g>
    <defs>
        <clipPath id="clip0_1693_178">
            <rect width="119.004" height="22" fill="white" transform="translate(0.889648 0.703125)" />
        </clipPath>
    </defs>
</svg>