<svg width="25" height="25" viewBox="0 0 25 25" fill="none" xmlns="http://www.w3.org/2000/svg">
    <g clip-path="url(#clip0_1693_355)">
        <mask id="mask0_1693_355" style="mask-type:luminance" maskUnits="userSpaceOnUse" x="0" y="0" width="25"
            height="25">
            <path d="M24.9287 0.804688H0.928711V24.8047H24.9287V0.804688Z" fill="white" />
        </mask>
        <g mask="url(#mask0_1693_355)">
            <mask id="mask1_1693_355" style="mask-type:luminance" maskUnits="userSpaceOnUse" x="0" y="0" width="25"
                height="25">
                <path d="M24.9287 0.804688H0.928711V24.8047H24.9287V0.804688Z" fill="white" />
            </mask>
            <g mask="url(#mask1_1693_355)">
                <path
                    d="M13.0335 0.805103C6.32313 0.749903 0.873927 6.1991 0.929127 12.9095C0.985527 19.4255 6.30873 24.7499 12.8235 24.8039C19.5339 24.8615 24.9855 19.4099 24.9279 12.6995C24.8739 6.1859 19.5495 0.861503 13.0335 0.805103ZM9.44553 6.7775C10.2135 7.7531 10.6731 8.9879 10.6731 10.3271C10.6731 11.4875 10.3287 12.5675 9.73713 13.4687H5.57673L9.44433 6.7763L9.44553 6.7775ZM22.1295 14.0879V14.9519C22.1295 15.0083 22.0995 15.0563 22.0479 15.0779C21.7659 15.1979 20.8359 15.6299 20.4483 16.1675C19.4499 17.5571 18.6879 19.7411 16.9839 19.7411H9.87393C7.35633 19.7411 5.25033 17.7431 5.25153 15.0815C5.25153 15.0155 5.30793 14.9615 5.37393 14.9615H8.74353C8.85993 14.9615 8.95113 15.0551 8.95113 15.1691V15.8195C8.95113 16.1651 9.23073 16.4459 9.57753 16.4459H12.1335V14.9579H10.3875C11.3919 13.6859 11.9895 12.0803 11.9895 10.3319C11.9895 8.3819 11.2419 6.6035 10.0179 5.2739C10.7583 5.3603 11.4663 5.5079 12.1335 5.7035V5.2895C12.1335 4.8599 12.4815 4.5119 12.9111 4.5119C13.3407 4.5119 13.6887 4.8599 13.6887 5.2895V6.2879C16.0743 7.4015 17.6367 9.2495 17.6367 11.3399C17.6367 12.5663 17.1003 13.7075 16.1751 14.6675C15.9975 14.8511 15.7515 14.9555 15.4935 14.9555H13.6899V16.4411H15.9543C16.4427 16.4411 17.3187 15.5147 17.7339 14.9567C17.7339 14.9567 17.7519 14.9291 17.7999 14.9147C17.8479 14.9003 21.9579 13.9571 21.9579 13.9571C22.0443 13.9331 22.1295 13.9991 22.1295 14.0867V14.0879Z"
                    fill="#F3F3F3" />
            </g>
        </g>
    </g>
    <defs>
        <clipPath id="clip0_1693_355">
            <rect width="24" height="24" fill="white" transform="translate(0.928711 0.804688)" />
        </clipPath>
    </defs>
</svg>