<svg width="50" height="61" viewBox="0 0 50 61" fill="none" xmlns="http://www.w3.org/2000/svg">
    <g clip-path="url(#clip0_1693_173)">
        <path
            d="M45.1098 36.003C45.0051 36.0324 45.0019 36.2902 45.004 36.3864C45.0086 36.6115 45.1091 37.4693 45.2173 37.6161C45.3255 37.7629 45.8223 37.6933 45.9884 37.8299L46.0257 37.916C45.9565 38.1972 45.9259 38.4925 45.8409 38.7699C45.7833 38.9574 45.4948 39.666 45.3743 39.7784C45.1941 39.9459 44.5445 39.8314 44.4092 40.0077C44.3165 40.1288 44.1053 40.8093 44.0371 41.0053C43.9289 41.3171 43.9321 41.6672 43.6489 41.8814C41.2391 43.7055 38.1242 42.5211 36.2559 40.533C35.3171 39.534 34.384 38.3833 33.4803 37.3376C32.1994 35.8558 30.9662 34.3298 29.6515 32.8785L26.7878 36.2667L35.6878 46.8068C35.7503 46.8405 35.8104 46.8482 35.8799 46.8303C36.1238 46.7671 36.4656 46.5396 36.7316 46.4497C39.232 45.6069 41.9882 46.3563 43.7754 48.257C44.0045 48.5007 44.5771 49.1218 44.6031 49.4323C44.6151 49.5755 44.5673 49.7128 44.5655 49.8526C44.5448 51.3302 44.7236 52.7958 44.6421 54.2706C44.7296 54.5645 45.5883 54.3914 45.752 54.5508C45.8426 54.6389 45.732 55.0354 45.6986 55.1663C45.5303 55.8247 45.0346 56.8009 44.5318 57.2655C44.1692 57.6008 43.664 57.3813 43.299 57.6837C43.2561 57.7191 43.2358 57.7837 43.1918 57.8224C42.9624 58.025 42.4874 58.3631 42.4565 58.6704C42.4403 58.8294 42.5433 58.9976 42.4056 59.1437C42.2685 59.2894 41.4264 59.5299 41.1942 59.583C40.8811 59.6546 40.5551 59.7175 40.2308 59.7003L40.1908 59.6701C40.1591 59.5271 40.0822 59.4028 40.032 59.2669C39.9779 59.1205 39.8482 58.5503 39.7509 58.4941C39.7052 58.4678 39.6142 58.4576 39.5591 58.4555C39.2144 58.4414 38.5174 58.4361 38.1882 58.4751C37.9496 58.5032 37.931 58.7557 37.872 58.9667C37.8411 59.0766 37.7971 59.472 37.7142 59.5138C37.6405 59.5514 36.4705 59.0075 36.3015 58.9221C36.1937 58.8677 35.8592 58.7139 35.8153 58.6356C35.7215 58.3392 35.783 57.3413 35.5553 57.1397C35.3438 56.9522 34.404 57.1963 34.059 56.8796C33.9307 56.7619 33.643 56.3346 33.5401 56.1692C32.0606 53.7952 32.224 50.4653 34.1134 48.3623L34.1243 48.2493L25.4004 37.9321L16.6597 48.2331L16.673 48.3392L17.2453 49.0692C18.3994 50.9874 18.5737 53.4412 17.6244 55.4799C17.4702 55.8107 16.9158 56.7623 16.633 56.947C16.3276 57.1461 15.4261 56.9765 15.2308 57.1257C14.9736 57.3223 15.1071 58.4544 14.9304 58.6865C14.8823 58.7501 13.9966 59.1539 13.8479 59.2199C13.5964 59.3312 13.3378 59.4478 13.0729 59.5268C12.9556 59.4917 12.9074 58.5959 12.6987 58.4941L11.0682 58.4765C11.0071 58.48 10.9962 58.5116 10.9698 58.5555C10.8599 58.7367 10.7095 59.6121 10.557 59.688C10.1779 59.7238 9.75107 59.6237 9.38218 59.5268C9.16751 59.4703 8.37491 59.2529 8.31518 59.0482C8.26459 58.8751 8.36226 58.6451 8.26846 58.4628C8.22103 58.3705 7.5268 57.717 7.41191 57.6334C7.11574 57.4179 6.62352 57.5471 6.37443 57.3711C5.94054 57.065 5.38192 56.0596 5.20696 55.5533C5.1409 55.3623 4.94381 54.7355 5.02251 54.5778C5.1922 54.3801 6.05015 54.549 6.12288 54.3085C6.14536 53.7955 6.1162 53.2807 6.1292 52.7677C6.14677 52.0612 6.23355 51.3358 6.236 50.6303C6.23741 50.2223 6.1545 49.7634 6.19982 49.3641C6.22617 49.1334 6.50512 48.8437 6.6576 48.6629C8.49963 46.4753 11.2787 45.5371 14.0517 46.4525C14.3121 46.5385 14.695 46.7812 14.9213 46.831C14.9782 46.8437 15.013 46.8573 15.065 46.8149L24.0007 36.2667L21.1946 32.9214L21.0854 32.9126L14.9308 40.0772C13.0596 42.3828 9.8909 43.7631 7.18636 41.9175C6.81324 41.663 6.78619 41.0734 6.6316 40.6461C6.58663 40.5221 6.4338 40.1043 6.37654 40.0235C6.23882 39.8283 5.64612 39.9339 5.42829 39.8146C5.0738 39.2194 4.811 38.5164 4.77517 37.8289C4.83279 37.7344 5.37313 37.7421 5.4954 37.6705C5.71006 37.5444 5.82249 36.3344 5.74344 36.0641C5.68231 35.9457 5.19501 36.0721 5.1121 35.9475C5.09839 35.9011 5.42056 35.1546 5.47221 35.0482C6.53323 32.8585 8.44447 31.5024 10.9252 31.4719C13.0529 31.4455 15.0917 32.8241 15.7669 34.8519C15.8319 35.0472 15.8797 35.4717 15.9665 35.6265C15.9869 35.6627 16.0202 35.6669 16.0557 35.6774L19.7981 31.316L15.8017 26.5563C15.7486 26.524 15.7089 26.5261 15.6503 26.537C15.4792 26.5686 15.1626 26.7445 14.9634 26.8017C14.0753 27.0573 13.1098 27.109 12.1953 27.0177C12.0175 26.8913 12.1932 25.5267 12.2076 25.276C12.2367 24.7742 12.229 24.2707 12.2828 23.7686C12.3151 23.4659 12.2729 23.2731 12.5944 23.1695C13.062 23.0189 13.5683 22.9732 14.038 22.8138C15.45 22.3342 16.8508 21.2147 17.6118 19.9324C18.683 18.1272 18.7694 15.5863 17.7368 13.7464C16.0873 10.808 13.1094 9.23529 9.74897 10.1777C4.62234 11.6157 3.464 17.7781 7.25381 21.3443C7.58336 21.6544 8.13776 21.9581 8.41075 22.2597C8.44166 22.2938 8.47082 22.3226 8.47785 22.371C8.35453 23.4504 8.15638 24.5207 7.99617 25.597C7.90483 26.2097 8.04396 26.3214 7.41788 25.9207C3.19383 23.2176 0.545492 18.9035 1.63497 13.7629C1.81907 12.8938 2.13948 12.1122 2.29547 11.2238C2.48765 10.1293 2.59586 9.01197 2.75712 7.91185L2.85409 7.9726L3.42676 9.98111C3.70115 9.9611 3.7268 9.51761 3.77142 9.29112C4.0054 8.0969 4.08761 6.65934 4.38308 5.51603C4.39889 5.45493 4.40733 5.39103 4.46108 5.34819L5.23612 7.90869C5.36084 8.10708 5.71639 7.74436 5.77014 7.6025L6.48088 3.34634L6.55431 3.39656C6.9204 4.36219 7.15157 5.37206 7.43159 6.36403C7.66663 6.40863 7.6726 6.13158 7.70562 5.95776C8.00531 4.37659 8.11387 2.65074 8.46977 1.09484C8.48874 1.01197 8.54249 0.714209 8.64122 0.712804L10.0634 5.50725L10.1358 5.50409C10.153 5.44194 10.18 5.38365 10.1955 5.3208C10.4365 4.34253 10.4724 3.18166 10.6702 2.17881C10.6818 2.11947 10.7014 2.0531 10.7496 2.01237L12.0523 6.04766L12.1942 5.9992L12.6994 2.6093C12.7718 2.59561 12.7838 2.64196 12.807 2.69428C13.0712 3.28595 13.2598 4.09216 13.4833 4.72211C13.6343 5.14804 13.8118 5.57046 13.9646 5.99674C14.0029 6.10419 14.1399 6.62493 14.1961 6.64389C14.2312 6.65583 14.2875 6.65407 14.318 6.6323L14.344 6.58841L14.7895 3.66342C14.8405 3.69713 14.8538 3.7347 14.8759 3.78702C15.3502 4.9047 15.7177 6.08312 16.2662 7.17305C16.4889 7.36443 16.7521 7.50558 16.9822 7.68642C20.8953 10.7568 22.7595 14.6186 21.7114 19.6409C21.6665 19.8558 21.5045 20.2172 21.5678 20.4141L25.223 24.6963L25.3994 24.8385L29.016 20.6213C29.1049 20.555 29.2032 20.4935 29.2306 20.3769C29.2651 20.2316 29.0845 19.7073 29.0444 19.5082C27.9831 14.2408 30.2934 10.0893 34.5512 7.12179L35.9569 3.66272L36.0345 3.70696C36.0567 3.95697 36.1283 4.20979 36.1645 4.45559C36.2555 5.07535 36.2804 5.78114 36.4094 6.3851C36.4393 6.52485 36.4322 6.69059 36.6212 6.64424L38.0469 2.57489L38.5922 6.05011L38.7092 6.04485L40.0667 2.01202L40.6338 5.46652L40.7343 5.52341C41.0336 4.57568 41.2511 3.60478 41.5329 2.65179C41.6973 2.09453 41.8592 1.50638 42.0535 0.960357C42.0676 0.92138 42.147 0.647843 42.2099 0.713155L43.176 6.33138L43.2814 6.3686L43.3636 6.3075L43.9771 4.11148L44.2827 3.31158C44.3196 3.48048 44.3639 3.64622 44.3944 3.81722C44.594 4.93349 44.6994 6.11086 44.926 7.2166C44.9538 7.35143 44.9949 7.6334 45.0757 7.73382C45.1396 7.81353 45.4716 8.08566 45.5447 7.92519L46.3384 5.34819C46.4002 5.40648 46.4005 5.50725 46.4157 5.58696C46.6633 6.8774 46.755 8.30969 47.0621 9.57344C47.0863 9.67281 47.1657 10.0264 47.3179 9.98111C47.4257 9.94881 47.6158 9.02461 47.666 8.85185C47.697 8.7451 47.9401 7.9115 47.99 7.9122L48.0356 7.9726C48.2348 9.21177 48.3241 10.5166 48.5799 11.7459C48.7569 12.5978 49.1065 13.4047 49.2505 14.297C49.9557 18.6662 47.9225 22.5912 44.4559 25.1665C44.0825 25.4439 43.4964 25.88 43.1008 26.0945C43.0295 26.1331 42.9452 26.1749 42.8662 26.1391C42.7864 26.078 42.8184 25.802 42.8036 25.7005C42.6761 24.8192 42.5064 23.9427 42.3869 23.0596C42.3623 22.8781 42.2861 22.5171 42.3167 22.3612C42.3314 22.2857 42.4498 22.1839 42.5096 22.133C43.0601 21.666 43.5822 21.3503 44.0712 20.7793C46.2143 18.2771 46.4578 14.4925 44.1088 12.0353C41.5764 9.38558 37.7402 9.19807 34.919 11.4917C30.6802 14.9374 31.7922 21.3745 37.0882 22.915C37.3106 22.9796 38.3603 23.1601 38.4327 23.2914L38.5919 25.38C38.621 25.6419 38.7563 26.9 38.568 27.0159C38.5307 27.0387 38.4236 27.0563 38.3751 27.0602C37.4961 27.1276 36.3447 26.9903 35.5114 26.703C35.3712 26.6546 35.1355 26.4801 35.0086 26.5384L31.0049 31.3145L34.7441 35.6855C34.7883 35.6529 34.8126 35.6156 34.834 35.5654C34.9493 35.2965 35.0041 34.8951 35.1218 34.5893C36.2109 31.764 39.4551 30.8728 42.1319 31.9192C43.8987 32.6099 45.0117 34.1781 45.6807 35.8881C45.7098 35.9261 45.6578 36.0026 45.6353 36.0026H45.1084L45.1098 36.003ZM20.6297 22.4539C20.5102 22.4869 20.0676 23.1801 19.9523 23.3244C19.6305 23.7271 19.2303 24.1963 18.8484 24.5386C18.4665 24.881 18.0274 25.1387 17.6655 25.4853L21.2199 29.6737L24.0481 26.4C24.0481 26.3396 23.6171 25.8428 23.5387 25.7493C22.6667 24.7051 21.716 23.7257 20.8704 22.6576C20.8011 22.5701 20.7917 22.4093 20.6297 22.4543V22.4539ZM29.6586 29.6361L33.1139 25.5194L33.076 25.4161C32.5423 25.0067 31.9064 24.5874 31.4598 24.0821C31.0681 23.6387 30.7248 23.0758 30.3352 22.6428C30.2678 22.568 30.1771 22.4476 30.0724 22.4448L26.7292 26.3986C27.657 27.5005 28.5765 28.6164 29.5626 29.6652C29.5953 29.6793 29.6343 29.6575 29.6582 29.6358L29.6586 29.6361ZM24.2228 29.2962L22.5416 31.2176C22.5258 31.2598 22.5357 31.2935 22.5539 31.3321C22.5764 31.3799 23.0138 31.8855 23.0507 31.8922C23.1653 31.8504 23.2436 31.6615 23.2995 31.5509C23.5436 31.0684 24.0763 29.9577 24.2059 29.4721C24.2217 29.4128 24.2294 29.3573 24.2228 29.2962ZM26.5946 29.2969L26.5577 29.4381C26.8662 30.0775 27.1068 30.7524 27.4139 31.3918C27.4603 31.4887 27.5924 31.8061 27.6486 31.8592C27.6827 31.8911 27.6992 31.908 27.7505 31.8922L28.2592 31.2499L26.5942 29.2966L26.5946 29.2969ZM25.3228 34.5872C25.4127 34.6707 25.476 34.5626 25.5413 34.4931C25.64 34.3881 26.2124 33.7104 26.2124 33.6324L25.3997 31.8241L24.5741 33.5991C24.5548 33.7887 25.2198 34.38 25.3224 34.5868L25.3228 34.5872ZM10.6094 33.7051C7.32408 33.835 5.44446 38.2313 8.57095 40.0765C11.1114 41.5759 14.5239 38.9378 13.849 36.1006C13.4977 34.624 12.1205 33.6451 10.6094 33.7051ZM39.63 33.7385C36.9845 34.0597 36.0159 37.1003 37.6798 39.0747C39.1248 40.7897 41.6811 41.1057 43.1588 39.2499C45.095 36.8183 42.518 33.3877 39.63 33.7385ZM11.4185 49.1538C8.99396 49.3248 7.03001 51.7333 7.77097 54.1491C8.72027 57.243 12.4089 57.7353 14.4572 55.4041C16.7246 52.8239 14.9023 48.908 11.4185 49.1538ZM38.5855 49.1808C35.5616 49.4891 34.3436 53.0233 36.2397 55.297C38.0673 57.4888 41.6 57.4466 42.8149 54.6723C43.5137 53.0767 43.1701 51.5724 41.9664 50.3459C41.0687 49.4312 39.8612 49.0509 38.5852 49.1808H38.5855Z"
            fill="white" />
    </g>
    <defs>
        <clipPath id="clip0_1693_173">
            <rect width="49" height="60" fill="white" transform="translate(0.889648 0.203125)" />
        </clipPath>
    </defs>
</svg>