<svg width="39" height="33" viewBox="0 0 39 33" fill="none" xmlns="http://www.w3.org/2000/svg">
    <path fill-rule="evenodd" clip-rule="evenodd"
        d="M2.68105 14.3197C13.15 9.8038 20.131 6.82662 23.6239 5.38819C33.5969 1.28118 35.6692 0.567754 37.0199 0.544196C37.317 0.539015 37.9812 0.611909 38.4115 0.957578C38.7748 1.24945 38.8748 1.64374 38.9226 1.92047C38.9704 2.1972 39.03 2.8276 38.9827 3.32017C38.4422 8.94234 36.1037 22.5859 34.914 28.8828C34.4106 31.5473 33.4194 32.4407 32.4598 32.5281C30.3744 32.7181 28.7908 31.1635 26.7709 29.8526C23.6102 27.8013 21.8246 26.5243 18.7566 24.5226C15.211 22.2093 17.5095 20.9378 19.5301 18.8599C20.0589 18.3161 29.2475 10.0413 29.4253 9.29064C29.4476 9.19676 29.4682 8.84681 29.2582 8.66202C29.0483 8.47723 28.7383 8.54042 28.5147 8.59068C28.1977 8.66191 23.1485 11.9662 13.367 18.5035C11.9338 19.4779 10.6356 19.9526 9.47251 19.9278C8.19028 19.9003 5.72379 19.21 3.8902 18.6198C1.64124 17.896 -0.146197 17.5134 0.00944812 16.2841C0.0905178 15.6439 0.98105 14.9891 2.68105 14.3197Z"
        fill="white" />
</svg>